<mxfile host="app.diagrams.net" agent="Mozilla/5.0 (X11; Linux x86_64) AppleWebKit/537.36 (KHTML, like Gecko) Chrome/131.0.0.0 Safari/537.36" version="24.9.0">
  <diagram name="Page-1" id="zYGFYwWdgDgnHZVmgpOS">
    <mxGraphModel dx="352" dy="187" grid="1" gridSize="10" guides="1" tooltips="1" connect="1" arrows="1" fold="1" page="1" pageScale="1" pageWidth="850" pageHeight="1100" math="0" shadow="0">
      <root>
        <mxCell id="0" />
        <mxCell id="1" parent="0" />
        <mxCell id="6ISc3NO1TbWstHizMqf0-1" value="" style="shape=umlLifeline;perimeter=lifelinePerimeter;whiteSpace=wrap;html=1;container=0;dropTarget=0;collapsible=0;recursiveResize=0;outlineConnect=0;portConstraint=eastwest;newEdgeStyle={&quot;curved&quot;:0,&quot;rounded&quot;:0};participant=umlActor;" parent="1" vertex="1">
          <mxGeometry x="40" y="160" width="20" height="510" as="geometry" />
        </mxCell>
        <mxCell id="6ISc3NO1TbWstHizMqf0-3" value=":AUUI" style="text;html=1;strokeColor=none;fillColor=none;align=center;verticalAlign=middle;whiteSpace=wrap;rounded=0;" parent="1" vertex="1">
          <mxGeometry x="160" y="210" width="60" height="30" as="geometry" />
        </mxCell>
        <mxCell id="6ISc3NO1TbWstHizMqf0-4" value=":LabilControl" style="text;html=1;strokeColor=none;fillColor=none;align=center;verticalAlign=middle;whiteSpace=wrap;rounded=0;" parent="1" vertex="1">
          <mxGeometry x="282" y="210" width="60" height="30" as="geometry" />
        </mxCell>
        <mxCell id="6ISc3NO1TbWstHizMqf0-6" value="" style="shape=umlLifeline;perimeter=lifelinePerimeter;whiteSpace=wrap;html=1;container=0;dropTarget=0;collapsible=0;recursiveResize=0;outlineConnect=0;portConstraint=eastwest;newEdgeStyle={&quot;curved&quot;:0,&quot;rounded&quot;:0};participant=umlBoundary;" parent="1" vertex="1">
          <mxGeometry x="170" y="160" width="50" height="520" as="geometry" />
        </mxCell>
        <mxCell id="gBN-1XBMMAoDzHGia2Et-8" value="" style="html=1;points=[[0,0,0,0,5],[0,1,0,0,-5],[1,0,0,0,5],[1,1,0,0,-5]];perimeter=orthogonalPerimeter;outlineConnect=0;targetShapes=umlLifeline;portConstraint=eastwest;newEdgeStyle={&quot;curved&quot;:0,&quot;rounded&quot;:0};" parent="6ISc3NO1TbWstHizMqf0-6" vertex="1">
          <mxGeometry x="20" y="405" width="10" height="30" as="geometry" />
        </mxCell>
        <mxCell id="gBN-1XBMMAoDzHGia2Et-10" value="" style="html=1;verticalAlign=bottom;endArrow=none;curved=0;rounded=0;endFill=0;startArrow=block;startFill=1;" parent="6ISc3NO1TbWstHizMqf0-6" source="6ISc3NO1TbWstHizMqf0-6" target="gBN-1XBMMAoDzHGia2Et-8" edge="1">
          <mxGeometry width="80" relative="1" as="geometry">
            <mxPoint x="25" y="410" as="sourcePoint" />
            <mxPoint x="530" y="410" as="targetPoint" />
          </mxGeometry>
        </mxCell>
        <mxCell id="gBN-1XBMMAoDzHGia2Et-16" value="" style="html=1;points=[[0,0,0,0,5],[0,1,0,0,-5],[1,0,0,0,5],[1,1,0,0,-5]];perimeter=orthogonalPerimeter;outlineConnect=0;targetShapes=umlLifeline;portConstraint=eastwest;newEdgeStyle={&quot;curved&quot;:0,&quot;rounded&quot;:0};" parent="6ISc3NO1TbWstHizMqf0-6" vertex="1">
          <mxGeometry x="20" y="474" width="10" height="30" as="geometry" />
        </mxCell>
        <mxCell id="6ISc3NO1TbWstHizMqf0-14" value=":Counselor" style="text;html=1;strokeColor=none;fillColor=none;align=center;verticalAlign=middle;whiteSpace=wrap;rounded=0;" parent="1" vertex="1">
          <mxGeometry x="20" y="205" width="60" height="30" as="geometry" />
        </mxCell>
        <mxCell id="6ISc3NO1TbWstHizMqf0-20" value="" style="shape=umlLifeline;perimeter=lifelinePerimeter;whiteSpace=wrap;html=1;container=1;dropTarget=0;collapsible=0;recursiveResize=0;outlineConnect=0;portConstraint=eastwest;newEdgeStyle={&quot;curved&quot;:0,&quot;rounded&quot;:0};participant=umlControl;" parent="1" vertex="1">
          <mxGeometry x="300" y="160" width="40" height="540" as="geometry" />
        </mxCell>
        <mxCell id="6ISc3NO1TbWstHizMqf0-22" value="" style="html=1;points=[[0,0,0,0,5],[0,1,0,0,-5],[1,0,0,0,5],[1,1,0,0,-5]];perimeter=orthogonalPerimeter;outlineConnect=0;targetShapes=umlLifeline;portConstraint=eastwest;newEdgeStyle={&quot;curved&quot;:0,&quot;rounded&quot;:0};" parent="6ISc3NO1TbWstHizMqf0-20" vertex="1">
          <mxGeometry x="15" y="107" width="10" height="43" as="geometry" />
        </mxCell>
        <mxCell id="31nMpwVcb4EoJ7QhzkkQ-13" value="" style="html=1;points=[[0,0,0,0,5],[0,1,0,0,-5],[1,0,0,0,5],[1,1,0,0,-5]];perimeter=orthogonalPerimeter;outlineConnect=0;targetShapes=umlLifeline;portConstraint=eastwest;newEdgeStyle={&quot;curved&quot;:0,&quot;rounded&quot;:0};" parent="6ISc3NO1TbWstHizMqf0-20" vertex="1">
          <mxGeometry x="15" y="225" width="10" height="25" as="geometry" />
        </mxCell>
        <mxCell id="gBN-1XBMMAoDzHGia2Et-11" value="" style="html=1;points=[[0,0,0,0,5],[0,1,0,0,-5],[1,0,0,0,5],[1,1,0,0,-5]];perimeter=orthogonalPerimeter;outlineConnect=0;targetShapes=umlLifeline;portConstraint=eastwest;newEdgeStyle={&quot;curved&quot;:0,&quot;rounded&quot;:0};" parent="6ISc3NO1TbWstHizMqf0-20" vertex="1">
          <mxGeometry x="15" y="410" width="10" height="30" as="geometry" />
        </mxCell>
        <mxCell id="6ISc3NO1TbWstHizMqf0-26" value="::index" style="html=1;verticalAlign=bottom;endArrow=block;curved=0;rounded=0;exitX=-0.3;exitY=0.254;exitDx=0;exitDy=0;exitPerimeter=0;" parent="1" source="6ISc3NO1TbWstHizMqf0-22" target="6ISc3NO1TbWstHizMqf0-21" edge="1">
          <mxGeometry width="80" relative="1" as="geometry">
            <mxPoint x="380" y="350" as="sourcePoint" />
            <mxPoint x="200" y="280" as="targetPoint" />
          </mxGeometry>
        </mxCell>
        <mxCell id="6ISc3NO1TbWstHizMqf0-27" value=":viewAvailability" style="html=1;verticalAlign=bottom;endArrow=block;curved=0;rounded=0;" parent="1" edge="1">
          <mxGeometry width="80" relative="1" as="geometry">
            <mxPoint x="320.5000000000001" y="300" as="sourcePoint" />
            <mxPoint x="435.0000000000002" y="300" as="targetPoint" />
          </mxGeometry>
        </mxCell>
        <mxCell id="6ISc3NO1TbWstHizMqf0-43" value=":FD" style="text;html=1;strokeColor=none;fillColor=none;align=center;verticalAlign=middle;whiteSpace=wrap;rounded=0;" parent="1" vertex="1">
          <mxGeometry x="470" y="221" width="60" height="30" as="geometry" />
        </mxCell>
        <mxCell id="6ISc3NO1TbWstHizMqf0-5" value=":Antrian" style="text;html=1;strokeColor=none;fillColor=none;align=center;verticalAlign=middle;whiteSpace=wrap;rounded=0;" parent="1" vertex="1">
          <mxGeometry x="410" y="210" width="60" height="30" as="geometry" />
        </mxCell>
        <mxCell id="6ISc3NO1TbWstHizMqf0-8" value="" style="shape=umlLifeline;perimeter=lifelinePerimeter;whiteSpace=wrap;html=1;container=1;dropTarget=0;collapsible=0;recursiveResize=0;outlineConnect=0;portConstraint=eastwest;newEdgeStyle={&quot;curved&quot;:0,&quot;rounded&quot;:0};participant=umlEntity;" parent="1" vertex="1">
          <mxGeometry x="420" y="160" width="40" height="540" as="geometry" />
        </mxCell>
        <mxCell id="6ISc3NO1TbWstHizMqf0-24" value="" style="html=1;points=[[0,0,0,0,5],[0,1,0,0,-5],[1,0,0,0,5],[1,1,0,0,-5]];perimeter=orthogonalPerimeter;outlineConnect=0;targetShapes=umlLifeline;portConstraint=eastwest;newEdgeStyle={&quot;curved&quot;:0,&quot;rounded&quot;:0};" parent="6ISc3NO1TbWstHizMqf0-8" vertex="1">
          <mxGeometry x="15" y="135" width="10" height="5" as="geometry" />
        </mxCell>
        <mxCell id="31nMpwVcb4EoJ7QhzkkQ-15" value="" style="html=1;points=[[0,0,0,0,5],[0,1,0,0,-5],[1,0,0,0,5],[1,1,0,0,-5]];perimeter=orthogonalPerimeter;outlineConnect=0;targetShapes=umlLifeline;portConstraint=eastwest;newEdgeStyle={&quot;curved&quot;:0,&quot;rounded&quot;:0};" parent="6ISc3NO1TbWstHizMqf0-8" vertex="1">
          <mxGeometry x="15" y="220" width="10" height="80" as="geometry" />
        </mxCell>
        <mxCell id="6ISc3NO1TbWstHizMqf0-21" value="" style="html=1;points=[[0,0,0,0,5],[0,1,0,0,-5],[1,0,0,0,5],[1,1,0,0,-5]];perimeter=orthogonalPerimeter;outlineConnect=0;targetShapes=umlLifeline;portConstraint=eastwest;newEdgeStyle={&quot;curved&quot;:0,&quot;rounded&quot;:0};" parent="1" vertex="1">
          <mxGeometry x="190" y="265" width="10" height="85" as="geometry" />
        </mxCell>
        <mxCell id="31nMpwVcb4EoJ7QhzkkQ-6" value="" style="html=1;verticalAlign=bottom;endArrow=block;curved=0;rounded=0;" parent="1" target="31nMpwVcb4EoJ7QhzkkQ-5" edge="1">
          <mxGeometry width="80" relative="1" as="geometry">
            <mxPoint x="440" y="330" as="sourcePoint" />
            <mxPoint x="650" y="330" as="targetPoint" />
          </mxGeometry>
        </mxCell>
        <mxCell id="31nMpwVcb4EoJ7QhzkkQ-5" value="" style="html=1;points=[[0,0,0,0,5],[0,1,0,0,-5],[1,0,0,0,5],[1,1,0,0,-5]];perimeter=orthogonalPerimeter;outlineConnect=0;targetShapes=umlLifeline;portConstraint=eastwest;newEdgeStyle={&quot;curved&quot;:0,&quot;rounded&quot;:0};" parent="1" vertex="1">
          <mxGeometry x="435" y="290" width="10" height="40" as="geometry" />
        </mxCell>
        <mxCell id="6ISc3NO1TbWstHizMqf0-46" value="" style="html=1;points=[[0,0,0,0,5],[0,1,0,0,-5],[1,0,0,0,5],[1,1,0,0,-5]];perimeter=orthogonalPerimeter;outlineConnect=0;targetShapes=umlLifeline;portConstraint=eastwest;newEdgeStyle={&quot;curved&quot;:0,&quot;rounded&quot;:0};" parent="1" vertex="1">
          <mxGeometry x="190" y="380" width="10" height="40" as="geometry" />
        </mxCell>
        <mxCell id="31nMpwVcb4EoJ7QhzkkQ-12" value=":selelctAntrian" style="html=1;verticalAlign=bottom;endArrow=block;curved=0;rounded=0;" parent="1" source="31nMpwVcb4EoJ7QhzkkQ-10" target="6ISc3NO1TbWstHizMqf0-46" edge="1">
          <mxGeometry width="80" relative="1" as="geometry">
            <mxPoint x="60" y="380" as="sourcePoint" />
            <mxPoint x="140" y="380" as="targetPoint" />
          </mxGeometry>
        </mxCell>
        <mxCell id="31nMpwVcb4EoJ7QhzkkQ-10" value="" style="html=1;points=[[0,0,0,0,5],[0,1,0,0,-5],[1,0,0,0,5],[1,1,0,0,-5]];perimeter=orthogonalPerimeter;outlineConnect=0;targetShapes=umlLifeline;portConstraint=eastwest;newEdgeStyle={&quot;curved&quot;:0,&quot;rounded&quot;:0};" parent="1" vertex="1">
          <mxGeometry x="45" y="360" width="10" height="80" as="geometry" />
        </mxCell>
        <mxCell id="31nMpwVcb4EoJ7QhzkkQ-14" value=":getAntrian" style="html=1;verticalAlign=bottom;endArrow=block;curved=0;rounded=0;" parent="1" target="31nMpwVcb4EoJ7QhzkkQ-13" edge="1">
          <mxGeometry width="80" relative="1" as="geometry">
            <mxPoint x="200" y="399.66" as="sourcePoint" />
            <mxPoint x="310" y="400" as="targetPoint" />
          </mxGeometry>
        </mxCell>
        <mxCell id="31nMpwVcb4EoJ7QhzkkQ-16" value=":getAntrian" style="html=1;verticalAlign=bottom;endArrow=block;curved=0;rounded=0;" parent="1" source="31nMpwVcb4EoJ7QhzkkQ-13" edge="1">
          <mxGeometry width="80" relative="1" as="geometry">
            <mxPoint x="330" y="400" as="sourcePoint" />
            <mxPoint x="435" y="400" as="targetPoint" />
          </mxGeometry>
        </mxCell>
        <mxCell id="31nMpwVcb4EoJ7QhzkkQ-20" value="" style="shape=umlLifeline;perimeter=lifelinePerimeter;whiteSpace=wrap;html=1;container=0;dropTarget=0;collapsible=0;recursiveResize=0;outlineConnect=0;portConstraint=eastwest;newEdgeStyle={&quot;curved&quot;:0,&quot;rounded&quot;:0};participant=umlEntity;" parent="1" vertex="1">
          <mxGeometry x="480" y="161" width="40" height="539" as="geometry" />
        </mxCell>
        <mxCell id="31nMpwVcb4EoJ7QhzkkQ-21" value="" style="html=1;points=[[0,0,0,0,5],[0,1,0,0,-5],[1,0,0,0,5],[1,1,0,0,-5]];perimeter=orthogonalPerimeter;outlineConnect=0;targetShapes=umlLifeline;portConstraint=eastwest;newEdgeStyle={&quot;curved&quot;:0,&quot;rounded&quot;:0};" parent="31nMpwVcb4EoJ7QhzkkQ-20" vertex="1">
          <mxGeometry x="15" y="359" width="10" height="24" as="geometry" />
        </mxCell>
        <mxCell id="9MAPe5Gw6r6Vr39sk6Cp-1" value="" style="shape=umlLifeline;perimeter=lifelinePerimeter;whiteSpace=wrap;html=1;container=0;dropTarget=0;collapsible=0;recursiveResize=0;outlineConnect=0;portConstraint=eastwest;newEdgeStyle={&quot;curved&quot;:0,&quot;rounded&quot;:0};participant=umlEntity;" parent="1" vertex="1">
          <mxGeometry x="563" y="170" width="40" height="539" as="geometry" />
        </mxCell>
        <mxCell id="9MAPe5Gw6r6Vr39sk6Cp-2" value="" style="html=1;points=[[0,0,0,0,5],[0,1,0,0,-5],[1,0,0,0,5],[1,1,0,0,-5]];perimeter=orthogonalPerimeter;outlineConnect=0;targetShapes=umlLifeline;portConstraint=eastwest;newEdgeStyle={&quot;curved&quot;:0,&quot;rounded&quot;:0};" parent="9MAPe5Gw6r6Vr39sk6Cp-1" vertex="1">
          <mxGeometry x="15" y="420" width="10" height="70" as="geometry" />
        </mxCell>
        <mxCell id="9MAPe5Gw6r6Vr39sk6Cp-3" value=":Availability" style="text;html=1;strokeColor=none;fillColor=none;align=center;verticalAlign=middle;whiteSpace=wrap;rounded=0;" parent="1" vertex="1">
          <mxGeometry x="553" y="220" width="60" height="30" as="geometry" />
        </mxCell>
        <mxCell id="gBN-1XBMMAoDzHGia2Et-2" value=":viewAntrian" style="html=1;verticalAlign=bottom;endArrow=none;curved=0;rounded=0;endFill=0;startArrow=block;startFill=1;" parent="1" edge="1">
          <mxGeometry width="80" relative="1" as="geometry">
            <mxPoint x="325" y="456" as="sourcePoint" />
            <mxPoint x="435" y="456" as="targetPoint" />
          </mxGeometry>
        </mxCell>
        <mxCell id="gBN-1XBMMAoDzHGia2Et-4" value=":getDD" style="html=1;verticalAlign=bottom;endArrow=none;curved=0;rounded=0;endFill=0;startArrow=block;startFill=1;" parent="1" source="gBN-1XBMMAoDzHGia2Et-1" edge="1">
          <mxGeometry width="80" relative="1" as="geometry">
            <mxPoint x="360" y="540" as="sourcePoint" />
            <mxPoint x="500" y="540" as="targetPoint" />
          </mxGeometry>
        </mxCell>
        <mxCell id="gBN-1XBMMAoDzHGia2Et-5" value=":viewAntrian" style="html=1;verticalAlign=bottom;endArrow=none;curved=0;rounded=0;endFill=0;startArrow=block;startFill=1;" parent="1" target="6ISc3NO1TbWstHizMqf0-20" edge="1">
          <mxGeometry width="80" relative="1" as="geometry">
            <mxPoint x="200" y="500" as="sourcePoint" />
            <mxPoint x="300" y="500" as="targetPoint" />
          </mxGeometry>
        </mxCell>
        <mxCell id="31nMpwVcb4EoJ7QhzkkQ-23" value="" style="html=1;points=[[0,0,0,0,5],[0,1,0,0,-5],[1,0,0,0,5],[1,1,0,0,-5]];perimeter=orthogonalPerimeter;outlineConnect=0;targetShapes=umlLifeline;portConstraint=eastwest;newEdgeStyle={&quot;curved&quot;:0,&quot;rounded&quot;:0};" parent="1" vertex="1">
          <mxGeometry x="190" y="480" width="10" height="30" as="geometry" />
        </mxCell>
        <mxCell id="gBN-1XBMMAoDzHGia2Et-9" value=":setAvailability" style="html=1;verticalAlign=bottom;endArrow=block;curved=0;rounded=0;endFill=1;startArrow=none;startFill=0;" parent="1" source="gBN-1XBMMAoDzHGia2Et-11" target="9MAPe5Gw6r6Vr39sk6Cp-2" edge="1">
          <mxGeometry width="80" relative="1" as="geometry">
            <mxPoint x="330" y="590" as="sourcePoint" />
            <mxPoint x="690" y="570" as="targetPoint" />
            <Array as="points" />
          </mxGeometry>
        </mxCell>
        <mxCell id="gBN-1XBMMAoDzHGia2Et-14" value=":setAvailability" style="html=1;verticalAlign=bottom;endArrow=block;curved=0;rounded=0;" parent="1" edge="1">
          <mxGeometry width="80" relative="1" as="geometry">
            <mxPoint x="200" y="580" as="sourcePoint" />
            <mxPoint x="320" y="580" as="targetPoint" />
            <mxPoint as="offset" />
          </mxGeometry>
        </mxCell>
        <mxCell id="gBN-1XBMMAoDzHGia2Et-15" value=":setAvailability" style="text;html=1;strokeColor=none;fillColor=none;align=center;verticalAlign=middle;whiteSpace=wrap;rounded=0;" parent="1" vertex="1">
          <mxGeometry x="90" y="550" width="60" height="30" as="geometry" />
        </mxCell>
        <mxCell id="gBN-1XBMMAoDzHGia2Et-17" value=":setAvailability" style="html=1;verticalAlign=bottom;endArrow=none;curved=0;rounded=0;endFill=0;startArrow=block;startFill=1;" parent="1" target="9MAPe5Gw6r6Vr39sk6Cp-2" edge="1">
          <mxGeometry width="80" relative="1" as="geometry">
            <mxPoint x="200" y="640" as="sourcePoint" />
            <mxPoint x="580" y="640" as="targetPoint" />
            <Array as="points">
              <mxPoint x="211" y="640" />
            </Array>
          </mxGeometry>
        </mxCell>
        <mxCell id="gBN-1XBMMAoDzHGia2Et-1" value="" style="html=1;points=[[0,0,0,0,5],[0,1,0,0,-5],[1,0,0,0,5],[1,1,0,0,-5]];perimeter=orthogonalPerimeter;outlineConnect=0;targetShapes=umlLifeline;portConstraint=eastwest;newEdgeStyle={&quot;curved&quot;:0,&quot;rounded&quot;:0};" parent="1" vertex="1">
          <mxGeometry x="315" y="455" width="10" height="110" as="geometry" />
        </mxCell>
        <mxCell id="xsslYc93oZ99i-mcCuqY-2" value="" style="html=1;verticalAlign=bottom;endArrow=none;curved=0;rounded=0;endFill=0;startArrow=block;startFill=1;" edge="1" parent="1" source="6ISc3NO1TbWstHizMqf0-20" target="gBN-1XBMMAoDzHGia2Et-1">
          <mxGeometry width="80" relative="1" as="geometry">
            <mxPoint x="320" y="540" as="sourcePoint" />
            <mxPoint x="500" y="540" as="targetPoint" />
          </mxGeometry>
        </mxCell>
      </root>
    </mxGraphModel>
  </diagram>
</mxfile>
